    <svg
       width="79.016663mm"
       height="77.340767mm"
       viewBox="0 0 79.016663 77.340767"
       version="1.1"
       id="svg5"
       xml:space="preserve"
       inkscape:export-filename="loader-logo.svg"
       inkscape:export-xdpi="96"
       inkscape:export-ydpi="96"
       xmlns:inkscape="http://www.inkscape.org/namespaces/inkscape"
       xmlns:sodipodi="http://sodipodi.sourceforge.net/DTD/sodipodi-0.dtd"
       xmlns="http://www.w3.org/2000/svg"
       xmlns:svg="http://www.w3.org/2000/svg"><defs
         id="defs2"><style
           id="style129">.cls-1,.cls-3{stroke:#000;stroke-miterlimit:10;}.cls-1{stroke-width:49px;}.cls-2{fill:url(#Dégradé_sans_nom_10);}.cls-3{stroke-width:34px;}.cls-4{fill:url(#Dégradé_sans_nom_10-2);}</style><style
           id="style948">.cls-1{fill:url(#Dégradé_sans_nom_10);}</style><style
           id="style3958">.cls-1,.cls-3{stroke:#000;stroke-miterlimit:10;}.cls-1{stroke-width:49px;}.cls-2{fill:url(#Dégradé_sans_nom_10);}.cls-3{stroke-width:34px;}.cls-4{fill:url(#Dégradé_sans_nom_10-2);}</style><style
           id="style4764">.cls-1,.cls-3{stroke:#000;stroke-miterlimit:10;}.cls-1{stroke-width:49px;}.cls-2{fill:url(#Dégradé_sans_nom_10);}.cls-3{stroke-width:34px;}.cls-4{fill:url(#Dégradé_sans_nom_10-2);}</style><style
           id="style6364">.cls-1,.cls-3{stroke:#000;stroke-miterlimit:10;}.cls-1{stroke-width:49px;}.cls-2{fill:url(#Dégradé_sans_nom_10);}.cls-3{stroke-width:34px;}.cls-4{fill:url(#Dégradé_sans_nom_10-2);}</style></defs><g
         inkscape:label="Layer 1"
         inkscape:groupmode="layer"
         id="layer1"
         transform="translate(-222.15016,-116.26485)"><g
           id="layer5-0"
           transform="translate(-22.948013,-49.961028)"
           inkscape:label="loader-logo"
           inkscape:export-filename="./layer5-0.svg"
           inkscape:export-xdpi="96"
           inkscape:export-ydpi="96"><path
             id="path4947"
             style="opacity:1;fill:none;stroke:#960000;stroke-width:0"
             d="m 243.93731,141.8628 a 14.851994,33.57146 46.202993 0 0 34.44118,-12.34614 14.851994,33.57146 46.202993 0 0 14.12378,-34.016797 14.851994,33.57146 46.202993 0 0 -34.44122,12.346147 14.851994,33.57146 46.202993 0 0 -14.12374,34.01679 z"
             inkscape:label="loader-ball-path"
             transform="translate(16.386715,86.214931)" /><path
             id="path1157-9"
             d="m 239.61375,116.26645 c -8.79047,-0.12638 -16.94573,7.23621 -17.39274,16.10496 -0.1178,14.44507 -0.0172,28.89544 -0.0506,43.34257 -0.48869,9.45663 7.93792,18.12097 17.41237,17.85421 h 43.25266 c 9.10926,0.63576 17.78235,-6.91697 18.24333,-16.07137 0.1177,-14.29777 0.0172,-28.60089 0.0506,-42.90074 0.63588,-9.10855 -6.91447,-17.78197 -16.06879,-18.24281 -14.86217,-0.1175 -29.72993,-0.0174 -44.59417,-0.0506 -0.28465,-0.0199 -0.5691,-0.0321 -0.85266,-0.0362 z"
             inkscape:label="loader-background"
             style="opacity:1;fill:none;fill-opacity:1"
             inkscape:export-filename="./path1157.svg"
             inkscape:export-xdpi="96"
             inkscape:export-ydpi="96"
             transform="translate(22.948013,49.961027)" /><path
             style="color:#000000;display:inline;fill:#ffffff;fill-opacity:1;stroke-width:1.06753;stroke-dasharray:none"
             d="m 262.53919,243.52904 c -9.6271,0 -17.41208,-7.78497 -17.41208,-17.41208 v -42.44353 c 0,-9.62709 7.78498,-17.40997 17.41208,-17.40997 h 44.13672 c 9.6271,0 17.40997,7.78288 17.40997,17.40997 v 42.44353 c 0,9.62711 -7.78287,17.41208 -17.40997,17.41208 z m 0,-2.1565 h 44.13672 c 8.4697,0 15.25347,-6.78587 15.25347,-15.25558 v -42.44353 c 0,-8.4697 -6.78377,-15.25347 -15.25347,-15.25347 h -44.13672 c -8.46971,0 -15.25558,6.78377 -15.25558,15.25347 v 42.44353 c 0,8.46971 6.78587,15.25558 15.25558,15.25558 z"
             id="path18243-6"
             inkscape:label="loader-outer" /><path
             id="rect11379-7-2"
             style="display:inline;fill:#ffffff;fill-opacity:1;stroke:none;stroke-width:0;stroke-dasharray:none;stroke-opacity:1"
             d="m 264.13927,170.06686 c -8.39173,0 -15.14739,6.75618 -15.14739,15.14791 v 39.36297 c 0,8.39173 6.75566,15.14791 15.14739,15.14791 h 40.93394 c 8.39173,0 15.14791,-6.75618 15.14791,-15.14791 v -39.36297 c 0,-8.39173 -6.75618,-15.14791 -15.14791,-15.14791 z m 36.33422,4.05453 a 22.145474,38.012989 46.227538 0 1 11.78998,4.69997 22.145474,38.012989 46.227538 0 1 -12.7155,42.42583 22.145474,38.012989 46.227538 0 1 -42.59844,9.72396 22.145474,38.012989 46.227538 0 1 12.71551,-42.42583 22.145474,38.012989 46.227538 0 1 30.80845,-14.42393 z"
             inkscape:label="loader-center" /><path
             d="m 294.74797,205.37514 c -6.9162,1.08744 -8.57514,2.74638 -9.66258,9.66259 a 0.48418749,0.48418749 0 0 1 -0.95779,0 c -1.08744,-6.91621 -2.74638,-8.57515 -9.66258,-9.66259 a 0.48418749,0.48418749 0 0 1 0,-0.95779 c 6.9162,-1.08743 8.57514,-2.74638 9.66258,-9.66259 a 0.48418749,0.48418749 0 0 1 0.95779,0 c 1.08744,6.91621 2.74638,8.57516 9.66258,9.66259 a 0.48418749,0.48418749 0 0 1 0,0.95779 z"
             id="path963-2-5-6"
             style="fill:#ffffff;fill-opacity:1;stroke-width:0;stroke-dasharray:none"
             inkscape:label="loader-star" /><circle
             style="fill:#ffffff;fill-opacity:1;stroke:none;stroke-width:0;stroke-dasharray:none;stroke-opacity:1"
             id="path15943-1"
             cx="305.73685"
             cy="182.46756"
             r="2.7089782"
             inkscape:label="loader-ball" /></g></g>
            </svg>