<svg xmlns="http://www.w3.org/2000/svg" xmlns:xlink="http://www.w3.org/1999/xlink" viewBox="0 0 136.8 391.06"><defs><style>.cls-1{fill:url(#Dégradé_sans_nom_10);}</style><linearGradient id="Dégradé_sans_nom_10" x1="7.14" y1="195.5" x2="903.58" y2="195.5" gradientUnits="userSpaceOnUse"><stop offset="0" stop-color="#3844d8"/><stop offset="1" stop-color="aqua"/></linearGradient></defs><g id="Calque_2" data-name="Calque 2"><g id="mark"><path d="M108.68,382.55a97.88,97.88,0,0,1-23.85-2.84c-10.43-2.62-19-6.85-26.16-12.93-9.67-8.22-16.13-19.42-19.18-33.31a95.22,95.22,0,0,1-2-26.44c.34-5.47.73-11.3,1.39-17.14.41-3.54.93-7,1.43-10.39.42-2.82.86-5.72,1.2-8.54,1.1-8.76,1.91-16,2.57-22.83a58.13,58.13,0,0,0-.19-15.39c-1.38-8.28-5.36-13.11-12.9-15.68a47.05,47.05,0,0,0-11.77-2C12.74,214.63,8.5,210,8.5,203.34V186.91c0-7,4.69-11.75,11.68-11.9a41.54,41.54,0,0,0,10.33-1.49c7.27-2.07,11.25-6,12.9-12.76a43.33,43.33,0,0,0,1-13.66c-.1-1.35-.19-2.7-.29-4-.34-4.91-.7-10-1.25-14.84-.45-4-1-8.1-1.58-12.08-.59-4.17-1.19-8.48-1.68-12.8-1.1-9.86-1.76-17.48-2.16-24.71A79.16,79.16,0,0,1,39.53,56c3-12.54,9-22.86,17.85-30.66,7-6.15,15.37-10.55,25.69-13.45,8.4-2.35,17.37-3.4,29.09-3.4,1.72,0,3.44,0,5.15.06a11.12,11.12,0,0,1,11,11.36c0,6.32,0,12.61,0,18.91a11.29,11.29,0,0,1-11.36,11.52l-1.35,0-1.3,0h-1.94a45.64,45.64,0,0,0-11.12,1.08C94,53.23,89.74,57.07,87.4,63.9a41.62,41.62,0,0,0-2.12,12.74c-.08,4.71.06,9.4.41,14,.36,4.74,1,9.44,1.65,14.4l.17,1.29c.28,2.12.61,4.22,1,6.45.49,3.15,1,6.4,1.37,9.7.59,5.32.94,10.67,1.28,15.84l.11,1.63a88,88,0,0,1-1.78,26C87.11,175.75,82.6,184,76,190.32a46,46,0,0,1-5.49,4.51,45.05,45.05,0,0,1,14,16.13c4.36,8.28,6.57,17.61,6.75,28.51.1,5.87-.11,12.24-.67,20-.34,4.6-1,9.12-1.55,13.48-.16,1.14-.31,2.28-.46,3.42-.28,2.1-.6,4.2-.91,6.3-.41,2.74-.8,5.32-1.11,7.92-.36,3.17-.62,6.35-.9,9.71-.13,1.63-.26,3.26-.4,4.88a31.07,31.07,0,0,0,3.91,19c6.2,10.65,15.3,16.09,27.85,16.63,6.7.29,11.2,5,11.2,11.73,0,2.24,0,4.53,0,6.82V364c0,2.29,0,4.58,0,6.86,0,6.83-4.79,11.66-11.65,11.69h-8Z"/><path d="M112.16,17q2.49,0,5,.06A2.64,2.64,0,0,1,119.79,20q0,9.41,0,18.84a2.83,2.83,0,0,1-3.08,3h-2.25c-.71,0-1.42,0-2.13,0a54,54,0,0,0-13.16,1.34c-9.77,2.44-16.49,8.27-19.81,18a49.91,49.91,0,0,0-2.58,15.34c-.08,4.92.06,9.86.44,14.75.41,5.41,1.15,10.79,1.86,16.16s1.72,10.63,2.31,16c.63,5.68,1,11.39,1.36,17.1a79.62,79.62,0,0,1-1.58,23.45c-1.83,7.77-5.24,14.69-11,20.28-5.06,4.88-11.15,7.9-17.77,10a8,8,0,0,0-1.42.75,8.38,8.38,0,0,0,1.43.73c10.83,3.05,19.34,9.13,24.69,19.29,4.06,7.71,5.63,16.07,5.77,24.69.11,6.42-.19,12.87-.65,19.29-.4,5.48-1.24,10.94-2,16.39-.63,4.79-1.47,9.55-2,14.35s-.89,9.88-1.33,14.82a39.88,39.88,0,0,0,5,24.05c7.78,13.37,19.52,20.19,34.83,20.85,2.14.09,3.07,1.05,3.07,3.24,0,3,0,6.07,0,9.11s0,6.07,0,9.1c0,2.25-1,3.24-3.19,3.25h-7.91a89.45,89.45,0,0,1-21.79-2.59c-8.36-2.1-16.08-5.53-22.73-11.17-8.89-7.56-13.9-17.38-16.38-28.65A86.57,86.57,0,0,1,46,307.57c.35-5.59.73-11.17,1.36-16.72.73-6.3,1.84-12.55,2.62-18.84,1-7.68,1.85-15.36,2.59-23.06a67.44,67.44,0,0,0-.27-17.61c-1.85-11.11-7.85-18.68-18.54-22.32a55.11,55.11,0,0,0-13.88-2.4c-2.13-.15-2.9-1.07-2.9-3.27V186.91c0-2.34,1-3.35,3.36-3.4a49.49,49.49,0,0,0,12.46-1.81c9.77-2.77,16.37-8.78,18.85-18.92a52.23,52.23,0,0,0,1.18-16.3c-.47-6.41-.85-12.84-1.57-19.22C50.34,119,49,110.7,48,102.39c-.9-8.06-1.68-16.15-2.12-24.23A70.43,70.43,0,0,1,47.8,58C50.25,47.7,55,38.76,63,31.73,69.5,26,77.11,22.41,85.37,20.09c8.8-2.47,17.77-3.09,26.79-3.09m0-17C99.63,0,90,1.15,80.78,3.72,69.19,7,59.69,12,51.75,19,41.56,28,34.66,39.76,31.26,54.05a87.35,87.35,0,0,0-2.33,25c.4,7.4,1.08,15.17,2.19,25.19.5,4.44,1.12,8.82,1.71,13s1.12,8,1.56,11.85c.53,4.68.86,9.44,1.22,14.48.09,1.36.19,2.72.29,4.08a35.25,35.25,0,0,1-.74,11c-.81,3.29-2.11,5.22-7,6.6A32.3,32.3,0,0,1,20,166.51c-11.59.25-20,8.82-20,20.4v16.44c0,11.11,7.66,19.41,18.64,20.22h0a40.34,40.34,0,0,1,9.65,1.53c4,1.35,6.29,3.19,7.26,9a50.29,50.29,0,0,1,.12,13.2c-.65,6.73-1.46,13.9-2.54,22.57-.34,2.73-.74,5.46-1.17,8.35-.52,3.44-1,7-1.47,10.64-.69,6.09-1.09,12-1.44,17.61a104,104,0,0,0,2.13,28.78c3.47,15.76,10.87,28.53,22,38C61.36,380.2,71,385,82.76,388a106.4,106.4,0,0,0,25.93,3.11h8c11.64-.05,20.08-8.53,20.12-20.17q0-3.45,0-6.92v-4.52c0-2.31,0-4.61,0-6.92a19.71,19.71,0,0,0-19.36-20.15c-9.66-.42-16.09-4.25-20.85-12.42a23.06,23.06,0,0,1-2.79-14c.15-1.62.28-3.27.42-4.92.26-3.29.52-6.4.87-9.43.28-2.45.66-5,1.06-7.62.32-2.09.64-4.26.93-6.47.15-1.11.31-2.24.46-3.37.62-4.49,1.25-9.14,1.6-14,.58-8.07.8-14.68.7-20.82-.2-12.25-2.73-22.82-7.73-32.32a55.53,55.53,0,0,0-8.59-12.14,57.63,57.63,0,0,0,14.21-27,96.29,96.29,0,0,0,2-28.44l-.11-1.67c-.34-5.26-.7-10.7-1.31-16.21-.39-3.49-.92-6.84-1.42-10.08-.35-2.18-.67-4.23-.94-6.26l-.17-1.27C95.12,99,94.51,94.45,94.17,90c-.33-4.31-.46-8.74-.39-13.19a32.53,32.53,0,0,1,1.67-10.13c1.38-4,3.43-5.87,7.84-7a37.82,37.82,0,0,1,9-.83h1.78l1.47,0,1.58,0a19.79,19.79,0,0,0,19.63-20c0-6.32,0-12.69,0-19A19.71,19.71,0,0,0,117.45.06c-1.88,0-3.62-.06-5.29-.06Z"/><path class="cls-1" d="M118.76,7.15A59.21,59.21,0,0,0,110.87,7a103.93,103.93,0,0,0-29.45,3.81c-10.4,3.05-19.72,8-27.48,15.74C45.12,35.29,40,46,37.58,58.18a99.75,99.75,0,0,0-1,30.06c1.27,12.1,3,24.15,4.49,36.22,1.14,9.11,2.2,18.23,2,27.44a46.3,46.3,0,0,1-.9,8.13c-1.18,6-4.9,9.77-10.6,11.67-4.1,1.36-8.34,1.63-12.59,1.91A12.4,12.4,0,0,0,7.14,186.37v17.71a12.5,12.5,0,0,0,12.13,12.59,38.31,38.31,0,0,1,11.8,2c6.71,2.4,10.44,7.25,11.52,14.28a60.5,60.5,0,0,1,.07,16.13c-1.35,11.87-3,23.71-4.52,35.56-1.46,11.21-2.6,22.44-2,33.76S38.9,341,44.33,351.17c7.42,13.95,18.92,23,33.6,28.06a84.88,84.88,0,0,0,24.16,4.58c5.21.25,10.44.28,15.65.26,5.82,0,11.47-5.05,11.75-10.91.34-7.15.19-14.32.2-21.48a11.54,11.54,0,0,0-.39-2.74,12.48,12.48,0,0,0-12-9.61,30.29,30.29,0,0,1-30.17-25.91,51.8,51.8,0,0,1,0-13.34c1.1-10.12,2.78-20.17,3.92-30.29.83-7.27,1.25-14.59,1.7-21.9a86.61,86.61,0,0,0-1.07-19.76c-1.92-11.32-6.25-21.45-14.45-29.65-1.27-1.26-2.66-2.42-4.1-3.72a46.37,46.37,0,0,0,10.59-11.52,57,57,0,0,0,8.45-24.58c1.3-10.77.78-21.54-.46-32.27-1-8.82-2.45-17.59-3.63-26.4s-2-17.92-1.09-26.94a41.34,41.34,0,0,1,2-9.33c2.36-6.78,7.59-10.25,14.39-11.16A123.45,123.45,0,0,1,117,51.84a12.63,12.63,0,0,0,12.39-10.12,14.51,14.51,0,0,0,.31-3c0-6.19.05-12.39,0-18.59C129.69,13.31,125.32,8,118.76,7.15Zm1,31.66a2.83,2.83,0,0,1-3.08,3q-1.12,0-2.25,0a59,59,0,0,0-15.29,1.32c-9.77,2.44-16.49,8.27-19.81,18a49.91,49.91,0,0,0-2.58,15.34c-.08,4.92.06,9.86.44,14.75.41,5.41,1.15,10.79,1.86,16.16s1.72,10.63,2.31,16c.63,5.68,1,11.39,1.36,17.1a79.62,79.62,0,0,1-1.58,23.45c-1.83,7.77-5.24,14.69-11,20.28-5.06,4.88-11.15,7.9-17.77,10a8,8,0,0,0-1.42.75,8.38,8.38,0,0,0,1.43.73c10.83,3.05,19.34,9.13,24.69,19.29,4.06,7.71,5.63,16.07,5.77,24.69.11,6.42-.19,12.87-.65,19.29-.4,5.48-1.24,10.94-2,16.39-.63,4.79-1.47,9.55-2,14.35s-.89,9.88-1.33,14.82a39.88,39.88,0,0,0,5,24.05c7.78,13.37,19.52,20.19,34.83,20.85,2.14.09,3.07,1.05,3.07,3.24,0,3,0,6.07,0,9.11s0,6.07,0,9.1c0,2.25-1,3.24-3.19,3.25h-7.77a89.07,89.07,0,0,1-21.93-2.59c-8.36-2.1-16.08-5.53-22.73-11.17-8.89-7.56-13.9-17.38-16.38-28.65A86.57,86.57,0,0,1,46,307.57c.35-5.59.73-11.17,1.36-16.72.73-6.3,1.84-12.55,2.62-18.84,1-7.68,1.85-15.36,2.59-23.06a67.44,67.44,0,0,0-.27-17.61c-1.85-11.11-7.85-18.68-18.54-22.32a55.11,55.11,0,0,0-13.88-2.4c-2.13-.15-2.9-1.07-2.9-3.27V186.91c0-2.34,1-3.35,3.36-3.4a49.49,49.49,0,0,0,12.46-1.81c9.77-2.77,16.37-8.78,18.85-18.92a52.23,52.23,0,0,0,1.18-16.3c-.47-6.41-.85-12.84-1.57-19.22C50.35,119,49,110.7,48,102.39c-.9-8.06-1.68-16.15-2.12-24.23A70.43,70.43,0,0,1,47.81,58C50.26,47.7,55,38.76,63,31.73c6.5-5.75,14.11-9.32,22.37-11.64,10.42-2.92,21.07-3.25,31.77-3A2.64,2.64,0,0,1,119.8,20Q119.83,29.38,119.8,38.81Z"/></g></g></svg>