<svg xmlns="http://www.w3.org/2000/svg" xmlns:xlink="http://www.w3.org/1999/xlink" viewBox="0 0 136.8 391.06"><defs><style>.cls-1{fill:url(#Dégradé_sans_nom_10);}</style><linearGradient id="Dégradé_sans_nom_10" x1="-766.77" y1="195.5" x2="129.67" y2="195.5" gradientUnits="userSpaceOnUse"><stop offset="0" stop-color="#3844d8"/><stop offset="1" stop-color="aqua"/></linearGradient></defs><g id="Calque_2" data-name="Calque 2"><g id="mark"><path d="M20.17,382.56c-6.86,0-11.66-4.87-11.66-11.75,0-2.25,0-4.54,0-6.84v-4.53q0-3.45,0-6.9c0-6.68,4.51-11.4,11.22-11.68,12.53-.53,21.64-6,27.84-16.63a31.22,31.22,0,0,0,3.91-19c-.15-1.61-.28-3.23-.41-4.85-.27-3.36-.53-6.54-.9-9.74-.3-2.59-.69-5.18-1.1-7.91-.32-2.1-.64-4.2-.91-6.31-.15-1.12-.31-2.25-.46-3.39-.6-4.37-1.22-8.89-1.55-13.49-.56-7.79-.77-14.16-.67-20,.17-10.89,2.38-20.22,6.74-28.51a45.3,45.3,0,0,1,14-16.12,44.58,44.58,0,0,1-5.49-4.52c-6.56-6.32-11.08-14.55-13.41-24.45a87.89,87.89,0,0,1-1.79-25.94l.11-1.67c.34-5.16.7-10.5,1.29-15.82.36-3.31.87-6.56,1.37-9.7.35-2.23.68-4.33,1-6.46l.18-1.33c.65-5,1.27-9.62,1.63-14.33s.49-9.26.42-14A41.73,41.73,0,0,0,49.4,63.89c-2.3-6.72-6.69-10.68-13.82-12.46a44.61,44.61,0,0,0-11-1.09l-2.13,0H21.4c-.51,0-1,0-1.54,0A11.26,11.26,0,0,1,8.51,38.85c0-6.32,0-12.61,0-18.91a11.13,11.13,0,0,1,11-11.38c1.7,0,3.42-.06,5.13-.06,11.73,0,20.7,1.05,29.09,3.4,10.33,2.9,18.73,7.3,25.7,13.45C88.29,33.17,94.29,43.49,97.27,56a78.6,78.6,0,0,1,2.12,22.59c-.39,7.16-1.07,15-2.16,24.71-.48,4.32-1.09,8.64-1.67,12.81-.56,4-1.14,8.08-1.59,12.07-.55,4.88-.89,9.73-1.25,14.86-.09,1.35-.19,2.69-.29,4a43.63,43.63,0,0,0,1,13.66c1.66,6.77,5.64,10.7,12.91,12.76A41.48,41.48,0,0,0,116.63,175c7,.15,11.67,4.93,11.67,11.91v16.43c0,6.65-4.22,11.26-10.76,11.75a46.81,46.81,0,0,0-11.78,2c-7.54,2.57-11.51,7.4-12.89,15.67a58.34,58.34,0,0,0-.19,15.42c.65,6.82,1.47,14.07,2.56,22.8.35,2.83.78,5.74,1.2,8.55.5,3.37,1,6.86,1.43,10.37.67,5.87,1,11.7,1.4,17.16a95.54,95.54,0,0,1-2,26.44c-3.06,13.89-9.51,25.09-19.18,33.3-7.2,6.11-15.76,10.34-26.17,12.94a97.91,97.91,0,0,1-23.86,2.85H20.17Z"/><path d="M24.65,17c9,0,18,.62,26.78,3.08C59.69,22.41,67.3,26,73.8,31.73c8,7,12.75,16,15.2,26.27a70.2,70.2,0,0,1,1.9,20.16c-.44,8.09-1.22,16.17-2.12,24.23-.93,8.31-2.32,16.56-3.26,24.87-.72,6.39-1.1,12.81-1.57,19.23a52.19,52.19,0,0,0,1.18,16.29c2.48,10.14,9.08,16.16,18.85,18.92a50,50,0,0,0,12.46,1.81c2.35.05,3.36,1.06,3.36,3.41v16.42c0,2.21-.77,3.13-2.9,3.28A55.56,55.56,0,0,0,103,209c-10.69,3.64-16.69,11.21-18.54,22.31A67.58,67.58,0,0,0,84.21,249c.74,7.69,1.63,15.37,2.59,23,.78,6.29,1.89,12.54,2.62,18.83.63,5.56,1,11.15,1.36,16.73A86.55,86.55,0,0,1,89,331.65c-2.48,11.27-7.49,21.1-16.38,28.65A55,55,0,0,1,49.9,371.47a89.34,89.34,0,0,1-21.79,2.59H20.2c-2.2,0-3.19-1-3.19-3.25,0-3,0-6.07,0-9.1s0-6.07,0-9.12c0-2.18.93-3.14,3.07-3.24,15.31-.64,27.05-7.47,34.83-20.84a39.88,39.88,0,0,0,5-24.05c-.44-4.94-.76-9.89-1.33-14.82s-1.4-9.56-2-14.35c-.72-5.46-1.56-10.91-2-16.39-.46-6.41-.76-12.86-.65-19.3.14-8.6,1.71-17,5.77-24.68,5.35-10.16,13.86-16.24,24.69-19.3a7.1,7.1,0,0,0,1.43-.72,8.77,8.77,0,0,0-1.42-.75c-6.62-2.06-12.71-5.07-17.77-10-5.8-5.59-9.21-12.5-11-20.28a79.64,79.64,0,0,1-1.58-23.45c.38-5.71.73-11.42,1.36-17.11.59-5.33,1.6-10.63,2.31-16s1.45-10.74,1.86-16.14q.57-7.38.44-14.76a49.88,49.88,0,0,0-2.58-15.35c-3.32-9.7-10-15.54-19.81-18a52.75,52.75,0,0,0-13-1.35l-2.29,0h-.93c-.44,0-.88,0-1.32,0a2.81,2.81,0,0,1-3.08-3Q17,29.39,17,20a2.64,2.64,0,0,1,2.65-2.91c1.67,0,3.33-.06,5-.06m0-17V0h0C23,0,21.23,0,19.32.06A19.69,19.69,0,0,0,0,19.87c0,6.33,0,12.7,0,19a19.77,19.77,0,0,0,19.66,20l1.74,0h1.23l2,0a36.14,36.14,0,0,1,8.87.84c4.43,1.1,6.47,2.92,7.86,7A32.73,32.73,0,0,1,43,76.79c.07,4.43-.06,8.86-.39,13.15-.35,4.51-1,9.07-1.59,13.9l-.18,1.33c-.27,2-.59,4.06-.93,6.24-.51,3.24-1,6.59-1.42,10.09-.61,5.49-1,10.93-1.32,16.18l-.11,1.66a96.35,96.35,0,0,0,2,28.46,57.59,57.59,0,0,0,14.22,27A55.47,55.47,0,0,0,44.7,207c-5,9.5-7.52,20.07-7.72,32.34-.11,6.14.11,12.74.69,20.78.35,4.88,1,9.53,1.6,14,.16,1.13.31,2.25.46,3.38.29,2.2.62,4.37.93,6.46.4,2.66.78,5.17,1.07,7.64.35,3,.6,6.12.87,9.41.13,1.65.27,3.3.41,4.94a23,23,0,0,1-2.79,14c-4.76,8.17-11.19,12-20.86,12.41A19.71,19.71,0,0,0,0,352.52q0,3.47,0,6.92V364c0,2.31,0,4.61,0,6.92,0,11.64,8.49,20.12,20.12,20.17h8A106.48,106.48,0,0,0,54.05,388c11.69-2.92,21.37-7.73,29.58-14.69,11.13-9.45,18.52-22.22,22-38a104.09,104.09,0,0,0,2.13-28.8c-.35-5.57-.75-11.52-1.43-17.57-.43-3.69-1-7.24-1.47-10.68-.43-2.89-.84-5.62-1.17-8.34-1.09-8.67-1.89-15.84-2.54-22.58a50.27,50.27,0,0,1,.11-13.19c1-5.85,3.3-7.69,7.25-9a39.36,39.36,0,0,1,9.63-1.53c11-.83,18.67-9.15,18.67-20.24V186.92c0-11.58-8.41-20.16-20-20.41a32.46,32.46,0,0,1-8.2-1.17c-4.83-1.37-6.17-3.38-7-6.6a35.3,35.3,0,0,1-.74-11c.1-1.35.19-2.71.29-4.06.35-5,.69-9.8,1.22-14.5.44-3.88,1-7.74,1.55-11.84s1.21-8.61,1.71-13c1.1-9.86,1.8-17.87,2.2-25.2a87.3,87.3,0,0,0-2.34-25C102.15,39.78,95.25,28,85.05,19,77.11,12,67.62,7,56,3.72,46.85,1.15,37.18,0,24.65,0Z"/><path class="cls-1" d="M117.88,173.6c-4.25-.27-8.49-.54-12.59-1.9-5.7-1.9-9.42-5.68-10.6-11.67a46.52,46.52,0,0,1-.9-8.13c-.2-9.2.86-18.33,2-27.44,1.52-12.07,3.22-24.13,4.49-36.21a99.81,99.81,0,0,0-1-30.07C96.81,46,91.69,35.3,82.87,26.53A63.32,63.32,0,0,0,55.39,10.79,103.56,103.56,0,0,0,25.94,7a61,61,0,0,0-7.89.16c-6.56.89-10.93,6.16-11,13,0,6.2,0,12.4,0,18.59a14.44,14.44,0,0,0,.31,3A12.6,12.6,0,0,0,19.79,51.83a123.46,123.46,0,0,1,13.61.74c6.8.91,12,4.38,14.39,11.15a41.34,41.34,0,0,1,2,9.33c.9,9,.11,18-1.09,27s-2.61,17.57-3.63,26.39c-1.24,10.72-1.76,21.5-.46,32.27a57.08,57.08,0,0,0,8.45,24.59,46.51,46.51,0,0,0,10.59,11.51c-1.44,1.31-2.83,2.46-4.1,3.73-8.2,8.19-12.53,18.32-14.45,29.63a86.73,86.73,0,0,0-1.07,19.77c.45,7.31.87,14.63,1.7,21.9,1.14,10.12,2.82,20.17,3.92,30.29a51.8,51.8,0,0,1,0,13.34,30.29,30.29,0,0,1-30.17,25.91,12.46,12.46,0,0,0-12,9.61,11.54,11.54,0,0,0-.39,2.74c0,7.15-.14,14.33.2,21.48.28,5.86,5.93,10.89,11.75,10.91,5.21,0,10.44,0,15.65-.25a85.58,85.58,0,0,0,24.16-4.58c14.68-5.12,26.18-14.13,33.6-28.07,5.43-10.22,7.68-21.29,8.24-32.76s-.59-22.56-2-33.76C97.14,272.8,95.5,261,94.15,249.08A60.43,60.43,0,0,1,94.22,233c1.08-7,4.81-11.88,11.52-14.28a38.31,38.31,0,0,1,11.8-2,12.5,12.5,0,0,0,12.13-12.59V186.36A12.41,12.41,0,0,0,117.88,173.6Zm1.92,29.74c0,2.21-.77,3.13-2.9,3.28A55.56,55.56,0,0,0,103,209c-10.69,3.64-16.69,11.21-18.54,22.31A67.58,67.58,0,0,0,84.21,249c.74,7.69,1.63,15.37,2.59,23,.78,6.29,1.89,12.54,2.62,18.83.63,5.56,1,11.15,1.36,16.73A86.55,86.55,0,0,1,89,331.65c-2.48,11.27-7.49,21.1-16.38,28.65A55,55,0,0,1,49.9,371.47,89.07,89.07,0,0,1,28,374.06H20.2c-2.2,0-3.19-1-3.19-3.25,0-3,0-6.07,0-9.1s0-6.07,0-9.12c0-2.18.93-3.14,3.07-3.24,15.31-.64,27.05-7.47,34.83-20.84a39.88,39.88,0,0,0,5-24.05c-.44-4.94-.76-9.89-1.33-14.82s-1.4-9.56-2-14.35c-.72-5.46-1.56-10.91-2-16.39-.46-6.41-.76-12.86-.65-19.3.14-8.6,1.71-17,5.77-24.68,5.35-10.16,13.86-16.24,24.69-19.3a7.1,7.1,0,0,0,1.43-.72,8.77,8.77,0,0,0-1.42-.75c-6.62-2.06-12.71-5.07-17.77-10-5.8-5.59-9.21-12.5-11-20.28a79.64,79.64,0,0,1-1.58-23.45c.38-5.71.73-11.42,1.36-17.11.59-5.33,1.6-10.63,2.31-16s1.45-10.74,1.86-16.14q.57-7.38.44-14.76a49.88,49.88,0,0,0-2.58-15.35c-3.32-9.7-10-15.54-19.81-18a58.61,58.61,0,0,0-15.29-1.33c-.75,0-1.5,0-2.25,0a2.81,2.81,0,0,1-3.08-3Q17,29.39,17,20a2.64,2.64,0,0,1,2.65-2.91c10.7-.23,21.35.11,31.77,3C59.69,22.41,67.3,26,73.8,31.73c8,7,12.75,16,15.2,26.27a70.2,70.2,0,0,1,1.9,20.16c-.44,8.09-1.22,16.17-2.12,24.23-.93,8.31-2.32,16.56-3.26,24.87-.72,6.39-1.1,12.81-1.57,19.23a52.19,52.19,0,0,0,1.18,16.29c2.48,10.14,9.08,16.16,18.85,18.92a50,50,0,0,0,12.46,1.81c2.35.05,3.36,1.06,3.36,3.41Z"/></g></g></svg>