<svg xmlns="http://www.w3.org/2000/svg" xmlns:xlink="http://www.w3.org/1999/xlink" viewBox="0 0 658.01 246.04"><defs><style>.cls-1{fill:url(#Dégradé_sans_nom_10);}</style><linearGradient id="Dégradé_sans_nom_10" x1="-119.04" y1="116.31" x2="777.4" y2="116.31" gradientUnits="userSpaceOnUse"><stop offset="0" stop-color="#3844d8"/><stop offset="1" stop-color="aqua"/></linearGradient></defs><g id="Calque_2" data-name="Calque 2"><g id="mark"><path class="cls-1" d="M619.29,81.25c-3.24-5.39-5.91-11.14-10-16.06l.38-.72c3.13-5.46,6.3-10.92,9.41-16.4,2.21-3.9,4.71-7.7,6.49-11.81,3.13-7.25,2.66-14.34-2.6-20.58-3.77-4.46-8.83-6.11-14.55-6.11q-49.78,0-99.56,0a28,28,0,0,0-11.47,2.23,1.6,1.6,0,0,1-1.25,0,20.91,20.91,0,0,0-9.94-2.22q-50,0-100.06,0a27.3,27.3,0,0,0-10.73,2.18,2.3,2.3,0,0,1-1.69-.08,19.31,19.31,0,0,0-8.21-2.05c-12.05,0-24.1,0-36.16-.06a26.68,26.68,0,0,0-15.48,4.63,1.21,1.21,0,0,1-1.8-.14,17.36,17.36,0,0,0-11.61-4.42c-12.22-.07-24.43,0-36.65-.06A25.5,25.5,0,0,0,252,12.39c-1.41.73-2.76,1.55-4.14,2.31-5.48-4.25-8.05-5.12-15-5.12-11.05,0-22.1.05-33.15,0A28.2,28.2,0,0,0,187,12.28a1.67,1.67,0,0,1-1.35,0,20.08,20.08,0,0,0-10.44-2.68H74.53a19.29,19.29,0,0,0-2.63.11A29,29,0,0,0,50.23,24.16c-1.26,2.1-2.44,4.23-3.66,6.34Q29.71,59.84,12.84,89.19c-2.5,4.35-3.83,9-3.1,14,1.39,9.47,8.63,15.64,18.14,15.64q17.65,0,35.28,0h1.46c0,.24,0,.3-.06.32-.25.21-.5.44-.76.64a27.79,27.79,0,0,0-7,7.83q-19.1,33.21-38.16,66.45a20.24,20.24,0,0,0-2.11,16.2C18.77,218.07,25.66,223,34,223q50.72,0,101.45,0a25.78,25.78,0,0,0,10-2,2.7,2.7,0,0,1,2,0,19.92,19.92,0,0,0,8.73,2H258.08a16.38,16.38,0,0,0,3.13-.23,29.15,29.15,0,0,0,20.55-14.52c3.69-6.32,7.3-12.68,10.95-19,.17-.3.39-.57.66-1,.3.49.53.83.74,1.19q3,5.24,6.07,10.47c2,3.46,4,6.89,6,10.36,4.93,8.62,12.55,12.61,22.21,12.69,16.82.13,33.64,0,50.46.07a27.48,27.48,0,0,0,12-2.55,1.77,1.77,0,0,1,1.46,0,20,20,0,0,0,10,2.5c11.42,0,22.85-.08,34.27,0a28,28,0,0,0,12.89-2.61,1.49,1.49,0,0,1,1.24.05,20.66,20.66,0,0,0,10.47,2.55q50,0,99.94,0c11,0,19.25-5.15,24.71-14.44,12-20.4,23.63-41,35.4-61.5,3.74-6.52,7.79-12.9,11.08-19.65,4.08-8.36,4.22-16.91-.75-25.2C627.43,95.27,623.46,88.2,619.29,81.25Z"/><path d="M92.78,70.36a14.19,14.19,0,0,0-5,5.08L79.42,89.79a8.7,8.7,0,0,0-.91,3.64q0,3.64,4,3.64A12.15,12.15,0,0,0,88.93,95a14,14,0,0,0,5-5.1l4.2-7.2a14,14,0,0,1,5-5.1,12.18,12.18,0,0,1,6.38-2.1h36q4,0,4.05,3.6a7.68,7.68,0,0,1-1.05,3.6l-8.4,14.4a14,14,0,0,1-5,5.1,12,12,0,0,1-6.22,2.1H28.11q-4.2,0-4.2-3.6A7.68,7.68,0,0,1,25,97.07l37.5-64.8a14,14,0,0,1,5-5.1,12.18,12.18,0,0,1,6.38-2.1h100.8q4.05,0,4.05,3.6a7.59,7.59,0,0,1-1.06,3.6L161,61.07a14,14,0,0,1-5,5.1,12.21,12.21,0,0,1-6.39,2.1H99.09A11.93,11.93,0,0,0,92.78,70.36Zm7.47-16.58a7.8,7.8,0,0,0-1,3.64c0,2.44,1.4,3.65,4.2,3.65a11.8,11.8,0,0,0,6.3-2.1,15.53,15.53,0,0,0,5.1-5.1l8.25-14.4a7.68,7.68,0,0,0,1-3.6q0-3.6-4.07-3.6a12,12,0,0,0-6.32,2.09,15.6,15.6,0,0,0-5.11,5.08Z"/><path d="M362.75,25.07q4.2,0,4.2,3.6a7,7,0,0,1-1.2,3.6L328.4,97.07a14,14,0,0,1-5,5.1,12.18,12.18,0,0,1-6.38,2.1H194.75L172,65.72A7.79,7.79,0,0,1,171.2,62a16,16,0,0,1,2.25-8.1l12.45-21.6a14,14,0,0,1,5-5.1,12.15,12.15,0,0,1,6.37-2.1h36c2.7,0,4.06,1.2,4.06,3.6a7.7,7.7,0,0,1-1.06,3.6L203,89.87a7.68,7.68,0,0,0-1.05,3.6q0,3.6,4.05,3.6a12.15,12.15,0,0,0,6.37-2.1,14,14,0,0,0,5-5.11l33.3-57.6a14,14,0,0,1,5-5.09,12.15,12.15,0,0,1,6.37-2.1h36q4,0,4,3.57A7.22,7.22,0,0,1,301,32.22L267.83,89.88a7.52,7.52,0,0,0-1.08,3.6c0,2.39,1.36,3.59,4.05,3.59a11.86,11.86,0,0,0,6.31-2.1,15.59,15.59,0,0,0,5.09-5.1l33.16-57.6a15.4,15.4,0,0,1,5.09-5.1,11.8,11.8,0,0,1,6.3-2.1Z"/><path d="M402.68,70.36a14.3,14.3,0,0,0-5,5.08l-8.41,14.35a8.85,8.85,0,0,0-.91,3.64q0,3.64,4.05,3.64a12.18,12.18,0,0,0,6.38-2.1,14,14,0,0,0,5-5.1l4.2-7.2a14,14,0,0,1,5-5.1,12.15,12.15,0,0,1,6.37-2.1h36q4.05,0,4.05,3.6a7.68,7.68,0,0,1-1.05,3.6l-8.4,14.4a14,14,0,0,1-5,5.1,12,12,0,0,1-6.23,2.1H338q-4.2,0-4.2-3.6a7.68,7.68,0,0,1,1.05-3.6l37.5-64.8a14,14,0,0,1,5-5.1,12.15,12.15,0,0,1,6.37-2.1h100.8q4.05,0,4.05,3.6a7.68,7.68,0,0,1-1.05,3.6l-16.67,28.8a14,14,0,0,1-5,5.1,12.24,12.24,0,0,1-6.39,2.1H409A11.9,11.9,0,0,0,402.68,70.36Zm7.46-16.58a7.92,7.92,0,0,0-1,3.64c0,2.44,1.4,3.65,4.2,3.65a11.8,11.8,0,0,0,6.3-2.1,15.53,15.53,0,0,0,5.1-5.1L433,39.47a7.68,7.68,0,0,0,1.05-3.6q0-3.6-4.06-3.6a12,12,0,0,0-6.32,2.09,15.51,15.51,0,0,0-5.11,5.08Z"/><path d="M606.05,25.07q4.05,0,4.05,3.6a7.68,7.68,0,0,1-1.05,3.6l-37.5,64.8a14,14,0,0,1-5,5.1,12,12,0,0,1-6.23,2.1h-36q-4.2,0-4.2-3.6a7.68,7.68,0,0,1,1-3.6l33.3-57.6a7.68,7.68,0,0,0,1-3.6q0-3.6-4-3.6a11.8,11.8,0,0,0-6.3,2.1,15.42,15.42,0,0,0-5.09,5.11l-33.3,57.6a14,14,0,0,1-5,5.09,12,12,0,0,1-6.23,2.1h-36q-4.2,0-4.2-3.6a7.68,7.68,0,0,1,1.05-3.6l37.5-64.8a14,14,0,0,1,5-5.1,12.15,12.15,0,0,1,6.37-2.1Z"/><path d="M192.5,110.82a7.84,7.84,0,0,1,.9,4.05,13.67,13.67,0,0,1-1.8,6.9l-45.3,78.3a14,14,0,0,1-5,5.1,12,12,0,0,1-6.22,2.1H34.25q-4.2,0-4.2-3.6a7.68,7.68,0,0,1,1.05-3.6l37.5-64.8a14,14,0,0,1,5-5.1,12.18,12.18,0,0,1,6.38-2.1h50.4a11.8,11.8,0,0,0,6.18-2.11,14,14,0,0,0,5-5.13l24.08-41.36q2.25-3.9,4.65-3.9a2.64,2.64,0,0,1,2.25,1.35Zm-63.27,31.67a7.92,7.92,0,0,0,1-3.61q0-3.62-4-3.61a11.67,11.67,0,0,0-6.28,2.11,15.51,15.51,0,0,0-5.08,5.12L85.72,192.88a7.5,7.5,0,0,0-1.07,3.59q0,3.6,4,3.6a12.15,12.15,0,0,0,6.37-2.1,14,14,0,0,0,5-5.1Z"/><path d="M302.3,128.07q4.05,0,4.05,3.6a7.8,7.8,0,0,1-1.05,3.6l-37.5,64.8a14.08,14.08,0,0,1-5,5.1,12,12,0,0,1-6.22,2.1H155.75q-4.2,0-4.2-3.6a7.68,7.68,0,0,1,1-3.6l16.65-28.8a15.53,15.53,0,0,1,5.1-5.1,11.75,11.75,0,0,1,6.3-2.1h50.4a12,12,0,0,0,6.33-2.09,15.7,15.7,0,0,0,5.13-5.09l8.29-14.36a8.46,8.46,0,0,0,.95-3.63q0-3.63-4.05-3.63a11.52,11.52,0,0,0-6.24,2.12,15.47,15.47,0,0,0-5.05,5.14l-4.19,7.21a13.89,13.89,0,0,1-5,5,12.1,12.1,0,0,1-6.24,2.08H184.86q-4.22,0-4.21-3.6a7.68,7.68,0,0,1,1-3.6l8.4-14.4a14,14,0,0,1,5-5.1,12.16,12.16,0,0,1,6.38-2.1ZM230,178.45a7.57,7.57,0,0,0,1.08-3.59c0-2.39-1.41-3.59-4.2-3.59a11.75,11.75,0,0,0-6.3,2.1,14.08,14.08,0,0,0-5,5.1l-8.4,14.4a7.68,7.68,0,0,0-1,3.6q0,3.6,4,3.6a12.21,12.21,0,0,0,6.38-2.1,14,14,0,0,0,5-5.09Z"/><path d="M424,128.07q4.05,0,4.05,3.6a7.8,7.8,0,0,1-1.05,3.6l-37.35,64.8a15.62,15.62,0,0,1-5.1,5.1,11.83,11.83,0,0,1-6.3,2.1H327.8c-4.8,0-8.16-1.55-10.05-4.65L298,168.72a6.71,6.71,0,0,1-.9-3.75,16,16,0,0,1,2.25-8.1l12.45-21.6a13.89,13.89,0,0,1,5-5.1,12.16,12.16,0,0,1,6.38-2.1h36q4.05,0,4.05,3.6a7.8,7.8,0,0,1-1.05,3.6l-33.3,57.6a7.68,7.68,0,0,0-1.05,3.6c0,2.4,1.39,3.6,4.19,3.6a12,12,0,0,0,6.22-2.1,14,14,0,0,0,5-5.11l33.3-57.6a14,14,0,0,1,5-5.09,12.15,12.15,0,0,1,6.37-2.1Z"/><path d="M400.55,207.27q-4.2,0-4.2-3.6a7.68,7.68,0,0,1,1-3.6l37.5-64.8a14,14,0,0,1,5-5.1,12.16,12.16,0,0,1,6.38-2.1h36q4.05,0,4.05,3.6a7.8,7.8,0,0,1-1.05,3.6l-37.5,64.8a14.08,14.08,0,0,1-5,5.1,12,12,0,0,1-6.22,2.1Z"/><path d="M617,110.82a7.84,7.84,0,0,1,.9,4.05,13.67,13.67,0,0,1-1.8,6.9l-45.3,78.3a14,14,0,0,1-5,5.1,12,12,0,0,1-6.23,2.1H458.74q-4.2,0-4.2-3.6a7.68,7.68,0,0,1,1-3.6l37.5-64.8a14,14,0,0,1,5-5.1,12.15,12.15,0,0,1,6.37-2.1h50.4a11.81,11.81,0,0,0,6.19-2.11,14.11,14.11,0,0,0,5-5.13l24.07-41.36q2.25-3.9,4.65-3.9A2.64,2.64,0,0,1,597,76.92Zm-63.27,31.67a7.92,7.92,0,0,0,1-3.61q0-3.62-4-3.61a11.64,11.64,0,0,0-6.27,2.11,15.33,15.33,0,0,0-5.08,5.12l-29.13,50.38a7.61,7.61,0,0,0-1.07,3.59q0,3.6,4.05,3.6a12.18,12.18,0,0,0,6.38-2.1,14,14,0,0,0,5-5.1Z"/></g><g id="more_inco" data-name="more inco"><path d="M657,120.79a28.94,28.94,0,0,0-3.52-8.89Q644.15,96,634.75,80.1a2.09,2.09,0,0,1,0-2.45q5.4-9.2,10.71-18.45c4.77-8.31,6.12-17.06,3-26.27a27.13,27.13,0,0,0-9.34-13,16.06,16.06,0,0,1-1.76-1.74c-.31-.33-.55-.74-.87-1.06-4.11-4-8-8.23-12.4-11.84A24.23,24.23,0,0,0,608.82.15C600,0,591.17,0,582.34,0H508a40,40,0,0,0-11.56,1.45,2.13,2.13,0,0,1-1.2,0A35.68,35.68,0,0,0,484.17,0q-48.74,0-97.46,0a39.66,39.66,0,0,0-11.82,1.48,2.32,2.32,0,0,1-1.33,0A35.07,35.07,0,0,0,362.5,0c-11.08,0-22.16,0-33.23,0A38.36,38.36,0,0,0,314,2.93a2,2,0,0,1-1.48,0A32.31,32.31,0,0,0,298.59,0q-17.25,0-34.49,0a38,38,0,0,0-14.8,2.91,2,2,0,0,1-1.47,0A31.45,31.45,0,0,0,234.07,0q-17.43,0-34.86,0a38.9,38.9,0,0,0-11.29,1.64,3.21,3.21,0,0,1-1.79,0A33.9,33.9,0,0,0,175.23,0c-33.16,0-66.31-.09-99.46.05C61.21.14,49.88,6.8,42.5,19.12,29.5,40.85,16.9,62.84,4.4,84.87c-5.7,10-6,20.46-.14,30.7a26.66,26.66,0,0,0,7.15,7.92,11,11,0,0,1,1.5,1.47c.59.65,1.08,1.38,1.69,2,2.86,2.89,5.68,5.82,8.63,8.61a27.4,27.4,0,0,0,12.28,6.62c.32.08.63.18,1.09.31-.26.5-.47.93-.7,1.34q-12.52,21.6-25,43.22A31.59,31.59,0,0,0,6.32,204.9a27.76,27.76,0,0,0,11.22,21.45,13.76,13.76,0,0,1,1.2,1.08l6.17,6.14A13.48,13.48,0,0,1,26,234.76,27.58,27.58,0,0,0,48.53,246q51.35.18,102.7,0c2.87,0,5.74-.86,8.61-1.29a6.78,6.78,0,0,1,1.8,0c3,.43,6.07,1.27,9.1,1.28,33.48.09,67,.16,100.46,0,14.56-.06,25.38-7.09,33.16-19.13.41-.63.75-1.3,1.13-1.94,0-.07.13-.11.25-.21a3.64,3.64,0,0,1,.54.43c3.09,3.19,6.21,6.35,9.25,9.59,6.46,6.9,14.49,10.42,23.81,11.18,1.49.12,3,.12,4.49.12q24.56,0,49.11,0a37,37,0,0,0,10.82-1.58,3.32,3.32,0,0,1,1.9,0,31.79,31.79,0,0,0,9.82,1.54q17.92,0,35.86,0A36.19,36.19,0,0,0,462,244.43a3.17,3.17,0,0,1,1.78,0,32.21,32.21,0,0,0,9.94,1.55q50,0,100,0c11.83,0,21.36-4.88,29.28-13.35,3.16-3.39,5.21-7.51,7.5-11.46q21.06-36.32,42.07-72.65a39.16,39.16,0,0,0,5.25-16.62,3.59,3.59,0,0,1,.2-.69v-5C657.69,124.43,657.41,122.6,657,120.79ZM630.53,127c-3.27,6.67-7.3,13-11,19.41-11.72,20.26-23.33,40.6-35.24,60.75-5.43,9.18-13.67,14.25-24.59,14.26q-49.72,0-99.46,0A20.66,20.66,0,0,1,449.8,219a1.51,1.51,0,0,0-1.23,0,28.15,28.15,0,0,1-12.83,2.57c-11.37-.1-22.74-.05-34.11,0a20,20,0,0,1-9.94-2.47,1.83,1.83,0,0,0-1.45,0,27.55,27.55,0,0,1-12,2.52c-16.74-.07-33.48.06-50.22-.07-9.61-.07-17.19-4-22.1-12.53-2-3.43-4-6.82-6-10.23s-4-6.9-6-10.35c-.21-.35-.44-.69-.74-1.17-.27.39-.49.66-.66,1-3.63,6.26-7.22,12.54-10.89,18.78a29,29,0,0,1-20.46,14.35,17,17,0,0,1-3.11.22H156.61a20,20,0,0,1-8.69-2,2.68,2.68,0,0,0-1.95,0,25.92,25.92,0,0,1-9.95,2q-50.48,0-101,0c-8.31,0-15.17-4.9-17.42-12.57a19.89,19.89,0,0,1,2.1-16q18.93-32.85,38-65.64a27.33,27.33,0,0,1,7-7.74c.26-.2.5-.42.75-.63,0,0,0-.08.06-.32H64.07q-17.55,0-35.11,0c-9.47,0-16.67-6.09-18-15.45-.73-5,.59-9.56,3.08-13.86q16.8-29,33.57-58C48.77,29.2,50,27.1,51.2,25a28.92,28.92,0,0,1,21.57-14.3,19.07,19.07,0,0,1,2.62-.11h100.2A20.09,20.09,0,0,1,186,13.26a1.65,1.65,0,0,0,1.34,0,28.19,28.19,0,0,1,12.56-2.69c11,.07,22,0,33,0,7,0,9.51.86,15,5.06,1.37-.75,2.72-1.56,4.12-2.28a25.48,25.48,0,0,1,11.78-2.79c12.16,0,24.32,0,36.48.06A17.31,17.31,0,0,1,311.77,15a1.21,1.21,0,0,0,1.79.14A26.73,26.73,0,0,1,329,10.6c12,.09,24,0,36,.06a19.29,19.29,0,0,1,8.17,2,2.28,2.28,0,0,0,1.68.08,27.4,27.4,0,0,1,10.68-2.16q49.8,0,99.58,0a20.93,20.93,0,0,1,9.89,2.2,1.64,1.64,0,0,0,1.25,0,28,28,0,0,1,11.41-2.21q49.54,0,99.09,0c5.69,0,10.73,1.63,14.48,6,5.23,6.16,5.7,13.17,2.58,20.33-1.77,4.06-4.25,7.81-6.45,11.67-3.1,5.41-6.25,10.8-9.37,16.2-.14.25-.27.51-.38.71,4.09,4.86,6.75,10.54,10,15.86,4.15,6.87,8.11,13.85,12.25,20.73C634.73,110.33,634.59,118.78,630.53,127Z"/></g></g></svg>