<svg id="svg" xmlns="http://www.w3.org/2000/svg" xmlns:xlink="http://www.w3.org/1999/xlink" width="12" height="12" viewBox="0, 0, 400,399.592252803262"><g id="svgg"><path id="path0" d="M181.448 0.484 C 142.691 2.894,100.158 20.961,68.573 48.429 C 64.620 51.867,63.115 52.751,61.855 52.371 C 61.362 52.222,52.972 44.139,43.211 34.409 C 24.656 15.913,23.995 15.363,22.870 17.465 C 22.650 17.877,21.443 25.262,20.188 33.877 C 16.189 61.332,9.950 103.225,5.106 135.152 C 0.095 168.188,0.068 168.410,1.048 169.390 C 2.016 170.357,3.430 170.230,21.038 167.600 C 58.150 162.055,110.091 154.349,130.887 151.301 C 154.588 147.829,154.974 147.735,154.257 145.648 C 154.126 145.266,145.695 136.601,135.521 126.391 C 114.895 105.692,115.690 106.742,118.756 104.256 C 162.840 68.519,219.347 64.759,267.278 94.374 C 342.304 140.729,344.294 253.497,270.948 302.339 C 219.645 336.501,156.197 331.248,112.449 289.215 C 106.033 283.051,109.879 280.547,80.228 310.197 C 50.244 340.182,52.761 336.007,60.251 343.323 C 88.197 370.621,124.924 389.548,162.695 396.118 C 183.261 399.695,211.354 400.460,228.950 397.923 C 308.390 386.470,374.733 326.541,393.890 248.930 C 420.548 140.931,356.745 33.443,249.541 5.745 C 229.746 0.631,207.156 -1.114,181.448 0.484 M194.734 158.221 C 159.218 163.823,145.279 208.026,171.184 232.903 C 201.681 262.190,251.796 236.309,244.863 194.851 C 240.808 170.597,218.697 154.440,194.734 158.221 " stroke="none" fill="#000000" fill-rule="evenodd"></path></g></svg>
